<svg width="24" height="24" viewBox="0 0 24 24" fill="none" xmlns="http://www.w3.org/2000/svg">
<path d="M6.14525 18.9483L6.05083 18.8041C5.86276 18.4661 5.89864 18.1199 5.95922 17.9075C6.02171 17.6886 6.13512 17.5045 6.21507 17.3853C6.3804 17.139 6.63927 16.8327 6.90811 16.5123L9.43406 13.502L8.76752 12.9427C8.25354 12.5114 7.77846 12.1164 7.45666 11.7535C7.1444 11.4013 6.82266 10.911 6.85875 10.2753L6.87107 10.1467L6.89176 10.0187C7.01977 9.39482 7.45684 9.00321 7.84899 8.74271C8.05098 8.60854 8.29208 8.47657 8.55844 8.34237L9.41996 7.92943L15.3051 5.1652C15.6838 4.98735 16.0462 4.81621 16.3266 4.71954C16.4623 4.67276 16.6691 4.60947 16.8968 4.60519C17.1177 4.60106 17.4614 4.65545 17.7399 4.92377L17.8543 5.05169C18.1468 5.4318 18.1096 5.84982 18.0404 6.09251C17.9779 6.31137 17.8645 6.49552 17.7845 6.61467C17.6192 6.86098 17.3603 7.16731 17.0915 7.4877L14.5655 10.498L15.2321 11.0573C15.746 11.4886 16.2211 11.8836 16.5429 12.2465C16.8552 12.5987 17.1769 13.089 17.1408 13.7247L17.1285 13.8533C17.0375 14.5522 16.5688 14.9795 16.1506 15.2573C15.7467 15.5256 15.1868 15.7854 14.5796 16.0706L8.69451 18.8348L8.14686 19.0879C7.97391 19.1651 7.81319 19.2321 7.67294 19.2805C7.53723 19.3272 7.33044 19.3905 7.10276 19.3948C6.88192 19.3989 6.53813 19.3445 6.25972 19.0762L6.14525 18.9483Z" stroke="#5D8736" stroke-width="2"/>
</svg>
