<svg width="24" height="24" viewBox="0 0 24 24" fill="none" xmlns="http://www.w3.org/2000/svg">
<path d="M18.3978 13.2493L17.4014 13.165L17.4012 13.1666L18.3978 13.2493ZM11.4288 12.5959L12.4233 12.7003L11.4288 12.5959ZM15.5633 7.56423L16.2475 6.83501L15.5633 7.56423ZM14.8747 6.69073C14.5524 6.88574 13.5575 7.51956 12.5947 8.47952C11.6498 9.4216 10.6119 10.8005 10.4342 12.4913L12.4233 12.7003C12.5298 11.6863 13.1852 10.715 14.0068 9.89584C14.8105 9.09456 15.6553 8.55605 15.9101 8.40186L14.8747 6.69073ZM19.3942 13.3336C19.5354 11.6654 18.8071 10.1268 18.084 9.02555C17.3474 7.90373 16.5197 7.09043 16.2475 6.83501L14.879 8.29346C15.0939 8.49507 15.7968 9.18603 16.4122 10.1233C17.0413 11.0813 17.4867 12.1566 17.4014 13.165L19.3942 13.3336ZM17.4012 13.1666C17.3997 13.1853 17.3979 13.204 17.3959 13.2227L19.385 13.4318C19.3885 13.3985 19.3916 13.3652 19.3944 13.332L17.4012 13.1666ZM17.3959 13.2227C17.2516 14.5959 16.0215 15.592 14.6483 15.4477L14.4393 17.4368C16.9109 17.6965 19.1252 15.9035 19.385 13.4318L17.3959 13.2227ZM14.6483 15.4477C13.2752 15.3034 12.2791 14.0734 12.4233 12.7003L10.4343 12.4914C10.1747 14.9629 11.9677 17.177 14.4393 17.4368L14.6483 15.4477ZM10.4342 12.4913C10.3767 13.0383 10.7727 13.5324 11.3242 13.5904L11.5333 11.6013C12.0848 11.6593 12.4807 12.1533 12.4233 12.7003L10.4342 12.4913ZM12.4233 12.7003C12.4799 12.1612 12.0926 11.6601 11.5333 11.6013L11.3242 13.5904C10.7649 13.5316 10.3776 13.0305 10.4343 12.4914L12.4233 12.7003ZM15.9101 8.40186C15.5815 8.60068 15.1595 8.55666 14.879 8.29346L16.2475 6.83501C15.8736 6.48409 15.3129 6.42556 14.8747 6.69073L15.9101 8.40186Z" fill="#5D8736"/>
<path d="M7.89145 19.3901L15.665 13.9469" stroke="#5D8736" stroke-width="2"/>
</svg>
