<svg width="24" height="24" viewBox="0 0 24 24" fill="none" xmlns="http://www.w3.org/2000/svg">
<path d="M17.2348 12.412L16.2383 12.3276L16.2382 12.3293L17.2348 12.412ZM10.7063 11.7996L9.71176 11.6952L10.7063 11.7996ZM14.5838 7.09017L15.2688 6.36158L14.5838 7.09017ZM13.8956 6.21737C13.5848 6.40582 12.6492 7.00393 11.7451 7.90749C10.8587 8.79337 9.87993 10.0947 9.71172 11.695L11.7008 11.9041C11.798 10.9786 12.3962 10.0844 13.1589 9.32211C13.9039 8.57752 14.6895 8.07496 14.9326 7.92751L13.8956 6.21737ZM18.2312 12.4964C18.3649 10.9176 17.6784 9.46564 17.0004 8.43052C16.309 7.375 15.531 6.60815 15.2688 6.36158L13.8988 7.81875C14.1037 8.01131 14.757 8.6556 15.3273 9.52634C15.911 10.4175 16.3163 11.4069 16.2383 12.3276L18.2312 12.4964ZM16.2382 12.3293C16.2368 12.3462 16.2352 12.3632 16.2334 12.3803L18.2224 12.5893C18.2258 12.5578 18.2287 12.5263 18.2313 12.4948L16.2382 12.3293ZM16.2334 12.3803C16.1018 13.6319 14.9806 14.5399 13.7289 14.4083L13.5199 16.3974C15.87 16.6444 17.9754 14.9395 18.2224 12.5893L16.2334 12.3803ZM13.7289 14.4083C12.4774 14.2768 11.5694 13.1556 11.7008 11.9041L9.71176 11.6952C9.46497 14.0452 11.1698 16.1504 13.5199 16.3974L13.7289 14.4083ZM9.71172 11.695C9.65342 12.2497 10.0578 12.737 10.6017 12.7941L10.8108 10.8051C11.3547 10.8622 11.7591 11.3495 11.7008 11.9041L9.71172 11.695ZM11.7008 11.9041C11.7589 11.3508 11.356 10.8624 10.8108 10.8051L10.6017 12.7941C10.0565 12.7368 9.65366 12.2484 9.71176 11.6952L11.7008 11.9041ZM14.9326 7.92751C14.6047 8.12638 14.1805 8.08351 13.8988 7.81875L15.2688 6.36158C14.8937 6.00902 14.3332 5.95203 13.8956 6.21737L14.9326 7.92751Z" fill="#5D8736"/>
<path d="M7.39259 18.1644L14.6748 13.0653" stroke="#5D8736" stroke-width="2"/>
<circle cx="12.7592" cy="12.7586" r="8.4311" stroke="#33363F" stroke-width="2"/>
<path d="M18.3799 18.3793L7.13842 7.13787" stroke="#33363F" stroke-width="2"/>
</svg>
