<svg width="24" height="24" viewBox="0 0 24 24" fill="none" xmlns="http://www.w3.org/2000/svg">
<path d="M8.25 12.75C8.25 12.2853 8.25 12.053 8.28843 11.8598C8.44624 11.0664 9.06644 10.4462 9.85982 10.2884C10.053 10.25 10.2853 10.25 10.75 10.25H13.25C13.7147 10.25 13.947 10.25 14.1402 10.2884C14.9336 10.4462 15.5538 11.0664 15.7116 11.8598C15.75 12.053 15.75 12.2853 15.75 12.75V14C15.75 16.0711 14.0711 17.75 12 17.75V17.75C9.92893 17.75 8.25 16.0711 8.25 14V12.75Z" stroke="#5D8736" stroke-width="2"/>
<path d="M9.75 8.75C9.75 8.51783 9.75 8.40175 9.75963 8.30397C9.85315 7.35441 10.6044 6.60315 11.554 6.50963C11.6517 6.5 11.7678 6.5 12 6.5V6.5C12.2322 6.5 12.3483 6.5 12.446 6.50963C13.3956 6.60315 14.1468 7.35441 14.2404 8.30397C14.25 8.40175 14.25 8.51783 14.25 8.75V10.25H9.75V8.75Z" stroke="#5D8736" stroke-width="2"/>
<path d="M12 10.25V13.25" stroke="#5D8736" stroke-width="2"/>
<path d="M14.25 4.25L12.75 6.5" stroke="#5D8736" stroke-width="2"/>
<path d="M9.75 4.25L11.25 6.5" stroke="#5D8736" stroke-width="2"/>
<path d="M8.25 14H4.5" stroke="#5D8736" stroke-width="2"/>
<path d="M19.5 14H15.75" stroke="#5D8736" stroke-width="2"/>
<path d="M18 8.75V9.5C18 10.7426 16.9926 11.75 15.75 11.75V11.75" stroke="#5D8736" stroke-width="2"/>
<path d="M18 18.5V18.5C18 17.2574 16.9926 16.25 15.75 16.25V16.25" stroke="#5D8736" stroke-width="2"/>
<path d="M6 8.75V9.5C6 10.7426 7.00736 11.75 8.25 11.75V11.75" stroke="#5D8736" stroke-width="2"/>
<path d="M6 18.5V18.5C6 17.2574 7.00736 16.25 8.25 16.25V16.25" stroke="#5D8736" stroke-width="2"/>
<ellipse cx="12" cy="12" rx="9" ry="9" stroke="#33363F" stroke-width="2"/>
<path d="M18 18L6 6" stroke="#33363F" stroke-width="2"/>
</svg>
