<svg width="24" height="24" viewBox="0 0 24 24" fill="none" xmlns="http://www.w3.org/2000/svg">
<path d="M14.201 6.75C14.3493 6.49307 14.5705 6.28591 14.8366 6.15469C15.1026 6.02348 15.4017 5.97411 15.6958 6.01283C15.9899 6.05156 16.266 6.17663 16.489 6.37224C16.7121 6.56785 16.8721 6.82521 16.9489 7.11177C17.0257 7.39833 17.0158 7.70123 16.9204 7.98216C16.825 8.26309 16.6485 8.50943 16.4131 8.69003C16.1778 8.87063 15.8941 8.97739 15.5981 8.99679C15.3021 9.01619 15.0069 8.94737 14.75 8.79904" stroke="#5D8736" stroke-width="2"/>
<path d="M9.79904 6.75C9.6507 6.49307 9.42951 6.28591 9.16343 6.15469C8.89736 6.02348 8.59834 5.97411 8.30421 6.01283C8.01008 6.05156 7.73403 6.17663 7.51098 6.37224C7.28793 6.56785 7.1279 6.82521 7.05111 7.11177C6.97433 7.39833 6.98424 7.70123 7.0796 7.98216C7.17497 8.26309 7.35149 8.50943 7.58686 8.69003C7.82222 8.87063 8.10586 8.97739 8.4019 8.99679C8.69793 9.01619 8.99307 8.94737 9.25 8.79904" stroke="#5D8736" stroke-width="2"/>
<path d="M19.2964 15.4162L18.8113 15.5377L19.2964 15.4162ZM13.0869 12.5859L12.7177 12.2488L12.0972 12.9283L13.0049 13.0791L13.0869 12.5859ZM17.1811 16.5L16.7008 16.639L16.8053 17H17.1811V16.5ZM15.4998 12C16.5275 12 17.2493 12.5027 17.7781 13.2069C18.3175 13.9253 18.6343 14.8306 18.8113 15.5377L19.7814 15.2948C19.5902 14.5315 19.2327 13.4787 18.5778 12.6065C17.9124 11.7203 16.92 11 15.4998 11V12ZM13.4562 12.923C13.9565 12.375 14.6105 12 15.4998 12V11C14.2826 11 13.3734 11.5306 12.7177 12.2488L13.4562 12.923ZM13.0049 13.0791C15.3055 13.4614 16.2788 15.1801 16.7008 16.639L17.6614 16.361C17.1903 14.7326 16.0188 12.5663 13.1689 12.0927L13.0049 13.0791ZM18.3948 16H17.1811V17H18.3948V16ZM18.8113 15.5377C18.8651 15.7526 18.7073 16 18.3948 16V17C19.2655 17 20.015 16.2277 19.7814 15.2948L18.8113 15.5377Z" fill="#5D8736"/>
<path d="M10.913 12.5859L10.995 13.0791L11.9027 12.9283L11.2823 12.2488L10.913 12.5859ZM4.70355 15.4162L5.18857 15.5377L4.70355 15.4162ZM6.8188 16.5V17H7.19465L7.2991 16.639L6.8188 16.5ZM8.50011 12C9.38944 12 10.0434 12.375 10.5438 12.923L11.2823 12.2488C10.6266 11.5306 9.71735 11 8.50011 11V12ZM5.18857 15.5377C5.36566 14.8306 5.6824 13.9253 6.22179 13.2069C6.7506 12.5027 7.47238 12 8.50011 12V11C7.07993 11 6.08755 11.7203 5.42211 12.6065C4.76725 13.4787 4.40968 14.5315 4.21853 15.2948L5.18857 15.5377ZM5.6051 16C5.29259 16 5.13477 15.7526 5.18857 15.5377L4.21853 15.2948C3.9849 16.2277 4.73436 17 5.6051 17V16ZM6.8188 16H5.6051V17H6.8188V16ZM7.2991 16.639C7.72116 15.1801 8.69448 13.4614 10.995 13.0791L10.831 12.0927C7.98113 12.5663 6.80962 14.7326 6.3385 16.361L7.2991 16.639Z" fill="#5D8736"/>
<circle cx="12" cy="8" r="2.5" stroke="#A9C46C" stroke-linecap="round"/>
<path d="M12 12.5C16.0802 12.5 17.1335 15.8022 17.4054 17.507C17.4924 18.0524 17.0523 18.5 16.5 18.5H7.5C6.94771 18.5 6.50763 18.0524 6.59461 17.507C6.86649 15.8022 7.91976 12.5 12 12.5Z" stroke="#A9C46C" stroke-linecap="round"/>
</svg>
